<?xml version="1.0" ?><svg viewBox="0 0 64 64" xmlns="http://www.w3.org/2000/svg"><defs><style>.cls-1{fill:#eaeaea;}.cls-2{fill:#4c241d;}.cls-3{fill:none;}.cls-3,.cls-4,.cls-5,.cls-6,.cls-7{stroke:#4c241d;stroke-linecap:round;stroke-linejoin:round;stroke-width:2px;}.cls-4{fill:#ffce56;}.cls-5{fill:#77a052;}.cls-6{fill:#a9ba5a;}.cls-7{fill:#ffded5;}</style></defs><g id="corn"><circle class="cls-1" cx="36" cy="29" r="23"/><circle class="cls-2" cx="45" cy="12" r="1"/><line class="cls-3" x1="37" x2="40" y1="5" y2="8"/><line class="cls-3" x1="40" x2="37" y1="5" y2="8"/><circle class="cls-3" cx="24" cy="11" r="2"/><path class="cls-3" d="M31.3536,23.2245a2.5789,2.5789,0,0,0-1.8924,2.3333c0,.9624,1.5911,1.2272,1.8924,2.3333a2.6453,2.6453,0,0,1-.9462,2.3334"/><path class="cls-3" d="M35.3536,17.2245a2.5789,2.5789,0,0,0-1.8924,2.3333c0,.9624,1.5911,1.2272,1.8924,2.3333a2.6453,2.6453,0,0,1-.9462,2.3334"/><path class="cls-4" d="M48,40.7329v1.2753a6.7721,6.7721,0,0,1-7.2035,6.7583L16.0179,47.0879C13.0017,46.8954,9,42.6109,9,41.3706v0c0-1.24,4.0017-5.5248,7.0179-5.7173l24.7786-1.6786A6.7721,6.7721,0,0,1,48,40.7329Z"/><path class="cls-5" d="M55.08,42.4787S51.5705,46.2846,48,42s1-4-8.63-9.5186C36.0333,30.5694,59.3644,33.91,55.08,42.4787Z"/><path class="cls-5" d="M55.08,40.5213a7.5559,7.5559,0,0,0-8.5692,2.1423c-3.57,4.2845-3.57,6.4268-7.1409,7.855S59.3644,49.09,55.08,40.5213Z"/><path class="cls-6" d="M52,38v6.893a2.0744,2.0744,0,0,0,1.6641,2.08A2.0013,2.0013,0,0,0,56,45V44h.53A2.47,2.47,0,0,0,59,41.53v-.06A2.47,2.47,0,0,0,56.53,39H56v-.8931a2.0743,2.0743,0,0,0-1.6642-2.08A2.0013,2.0013,0,0,0,52,38Z"/><path class="cls-7" d="M51.9167,56l2-7h6a3,3,0,0,0,3-3h-61a3,3,0,0,0,3,3h6l2,7Z"/><line class="cls-3" x1="2" x2="62" y1="56" y2="56"/><circle class="cls-2" cx="16.0815" cy="42.7825" r="1.1324"/><circle class="cls-2" cx="18.0815" cy="38.7825" r="1.1324"/><circle class="cls-2" cx="23.0815" cy="42.7825" r="1.1324"/><circle class="cls-2" cx="20.0815" cy="41.7825" r="1.1324"/><circle class="cls-2" cx="22.0815" cy="38.7825" r="1.1324"/><circle class="cls-2" cx="25.0815" cy="39.7825" r="1.1324"/><circle class="cls-2" cx="28.0815" cy="37.7825" r="1.1324"/><circle class="cls-2" cx="32.0815" cy="37.7825" r="1.1324"/><circle class="cls-2" cx="29.0815" cy="40.7825" r="1.1324"/><circle class="cls-2" cx="13.0815" cy="40.7825" r="1.1324"/></g></svg>